<svg class="share-menu__trigger__icon" xmlns="http://www.w3.org/2000/svg" viewBox="0 0 24 24" style="width: 28px; height: 28px; fill: rgb(0, 0, 0);"><path d="M22 11.27l-8-6a.24.24 0 00-.15-.06h-.09a.4.4 0 00-.1.29v2.81c-6 1.45-11.21 5.79-11.54 10a.2.2 0 00.19.21.19.19 0 00.12 0 19.37 19.37 0 0111-3.75h.19v2.73a.36.36 0 00.1.29.16.16 0 00.09 0 .24.24 0 00.15-.06l8-6a.29.29 0 00.14-.25.27.27 0 00-.1-.21zm-7 4.18v-2h-1.5a20.66 20.66 0 00-7.67 1.75c-.54.22-1 .45-1.5.68a11.58 11.58 0 012.76-3 17.11 17.11 0 013.76-2.25 17.44 17.44 0 012.88-1L15 9.35V7.58l5.25 3.93z" data-name="Layer 2"></path></svg>
