<svg style="width:24px;-webkit-backface-visibility:hidden;-webkit-transform:translateZ(0) scale(1.0, 1.0)" xmlns="http://www.w3.org/2000/svg" viewBox="0 0 24 24"><path d="M16.77 3.88a4 4 0 014 4 3.81 3.81 0 01-.26 1.4 8.2 8.2 0 01-.82 1.37L12 18.56l-7.63-7.89a9.41 9.41 0 01-.83-1.39 3.83 3.83 0 01-.25-1.38 4 4 0 017.33-2.3l1.42 2 1.43-2a4 4 0 013.3-1.72m0-1.79A5.76 5.76 0 0012 4.57 5.76 5.76 0 001.54 7.9a5.56 5.56 0 00.37 2A11.57 11.57 0 003 11.82l9 9.27 9-9.27a11.57 11.57 0 001.12-1.88 5.81 5.81 0 00-5.41-7.82z"></path></svg>
