<svg width="44" height="44" fill="none" xmlns="http://www.w3.org/2000/svg">
<defs>
    <symbol id="arrow" viewBox="0 0 600 600">
        <title>arrow</title>
        <svg xmlns="http://www.w3.org/2000/svg" style="width: 14px;"><path d="M150 117l60-61 240 244-240 244-60-61 180-183-180-183z"></path></svg>
    </symbol>

    <symbol id="heart" viewBox="0 0 24 24">
        <title>heart</title>
        <svg style="width:24px;-webkit-backface-visibility:hidden;-webkit-transform:translateZ(0) scale(1.0, 1.0)" xmlns="http://www.w3.org/2000/svg" ><path d="M16.77 3.88a4 4 0 014 4 3.81 3.81 0 01-.26 1.4 8.2 8.2 0 01-.82 1.37L12 18.56l-7.63-7.89a9.41 9.41 0 01-.83-1.39 3.83 3.83 0 01-.25-1.38 4 4 0 017.33-2.3l1.42 2 1.43-2a4 4 0 013.3-1.72m0-1.79A5.76 5.76 0 0012 4.57 5.76 5.76 0 001.54 7.9a5.56 5.56 0 00.37 2A11.57 11.57 0 003 11.82l9 9.27 9-9.27a11.57 11.57 0 001.12-1.88 5.81 5.81 0 00-5.41-7.82z"></path></svg>
    </symbol>

    <symbol id="goOut" viewBox="0 0 24 24">
        <title>goOut</title>
        <svg class="share-menu__trigger__icon" xmlns="http://www.w3.org/2000/svg"  style="width: 28px; height: 28px; fill: rgb(0, 0, 0);"><path d="M22 11.27l-8-6a.24.24 0 00-.15-.06h-.09a.4.4 0 00-.1.29v2.81c-6 1.45-11.21 5.79-11.54 10a.2.2 0 00.19.21.19.19 0 00.12 0 19.37 19.37 0 0111-3.75h.19v2.73a.36.36 0 00.1.29.16.16 0 00.09 0 .24.24 0 00.15-.06l8-6a.29.29 0 00.14-.25.27.27 0 00-.1-.21zm-7 4.18v-2h-1.5a20.66 20.66 0 00-7.67 1.75c-.54.22-1 .45-1.5.68a11.58 11.58 0 012.76-3 17.11 17.11 0 013.76-2.25 17.44 17.44 0 012.88-1L15 9.35V7.58l5.25 3.93z" data-name="Layer 2"></path></svg>
    </symbol>

    <symbol id="nts" viewBox="0 0 26 26">
        <title>nts</title>
        <svg xmlns="http://www.w3.org/2000/svg" ><path d="M22.7 6.9L22.3 9h-1.5l.5-2c.1-.6.1-1.1-.6-1.1s-1 .5-1.1 1.1l-.4 1.7c-.1.5-.1 1 0 1.5l1.4 4.1c.2.6.3 1.3.1 2l-.6 2.6c-.4 1.5-1.5 2.4-2.9 2.4-1.6 0-2.3-.7-1.9-2.4l.5-2.2h1.5l-.5 2.1c-.2.8 0 1.2.7 1.2.6 0 1-.5 1.2-1.2l.5-2.3c.1-.5.1-1.1-.1-1.6l-1.3-3.8c-.2-.7-.3-1.2-.2-2.1l.4-2c.4-1.6 1.4-2.4 2.9-2.4 1.7 0 2.2.8 1.8 2.3zM11.2 21.1L14.6 6H13l.3-1.3h4.8L17.8 6h-1.7l-3.4 15.1h-1.5zm-4.5 0L8.1 6.6 4.8 21.1H3.5L7.2 4.8h2.2L8 18.7l3.2-14h1.3L8.8 21.1H6.7zM0 26h26V0H0v26z" fill="#fff"></path></svg>
    </symbol>

    <symbol id="search" viewBox="0 0 600 600">
        <title>search</title>
        <svg xmlns="http://www.w3.org/2000/svg"><path d="M413.38 392.4a169.89 169.89 0 0 0 18.19-27.4c43-83 10.73-185.28-72.09-228.39a168.63 168.63 0 0 0-227.82 72.27c-43 83-10.74 185.28 72.09 228.39a168.49 168.49 0 0 0 183.35-18L461.62 494l26.56-26.62zm-194.25 15.16C152.67 373 126.77 290.9 161.28 224.28a135.43 135.43 0 0 1 182.82-58c66.46 34.6 92.36 116.66 57.85 183.28a135.43 135.43 0 0 1-182.82 58z"></path></svg>
    </symbol>

    <symbol id="track" viewBox="0 0 24 24">
        <title>track</title>
        <svg class="nts-icon nts-icon--inline-alt" style="width:24px;height:24px" xmlns="http://www.w3.org/2000/svg"><path d="M2.87 14.49h8V13h-8zm12-5h-12V11h12zm0-3.5h-12v1.5h12zm6.26 3.34l-2.88-1v7a2.67 2.67 0 01-2 2.61 2.53 2.53 0 01-2.88-1.44 2.73 2.73 0 01.71-3.24 2.49 2.49 0 013.2 0V6l3.84 1.33z"></path></svg>
    </symbol>

</defs>
</svg>
